<svg xmlns="http://www.w3.org/2000/svg" width="346.667" height="346.667" preserveAspectRatio="xMidYMid meet" version="1.0" viewBox="0 0 260 260"><metadata>Created by potrace 1.14, written by Peter Selinger 2001-2017</metadata><g fill="#000" stroke="none"><path d="M1224 2360 c-5 -5 -25 -11 -44 -13 -19 -2 -46 -9 -59 -16 -15 -8 -21 -9 -17 -2 10 16 -3 14 -20 -4 -8 -8 -21 -12 -29 -9 -8 4 -15 1 -15 -5 0 -6 -7 -8 -15 -5 -8 4 -15 1 -15 -5 0 -6 -9 -11 -20 -11 -11 0 -20 -5 -20 -11 0 -5 -4 -7 -10 -4 -5 3 -10 1 -10 -4 0 -6 -3 -10 -7 -9 -13 3 -67 -26 -80 -42 -7 -8 -13 -11 -13 -7 0 4 -6 3 -12 -2 -141 -112 -215 -180 -210 -193 1 -5 -5 -8 -13 -8 -8 0 -15 -6 -15 -13 0 -16 0 -16 -102 -18 -43 -1 -78 -5 -78 -10 0 -5 -7 -6 -15 -3 -8 4 -15 2 -15 -3 0 -5 -8 -9 -17 -10 -32 -2 -50 -8 -78 -27 -37 -24 -115 -98 -115 -109 0 -5 -8 -21 -19 -35 -10 -15 -17 -35 -16 -45 2 -9 -1 -15 -6 -11 -5 3 -9 -7 -9 -21 0 -15 -5 -36 -11 -47 -9 -16 -8 -19 2 -13 8 6 10 4 3 -6 -14 -23 -15 -51 -2 -67 10 -12 10 -14 1 -8 -7 4 -13 3 -13 -3 0 -5 5 -13 10 -16 8 -5 7 -11 -1 -21 -6 -8 -7 -14 -2 -14 5 0 9 -16 10 -35 1 -20 6 -42 13 -50 7 -8 10 -21 7 -29 -3 -8 1 -20 9 -27 8 -6 13 -17 11 -23 -2 -6 2 -17 10 -24 7 -7 13 -22 13 -33 0 -10 5 -19 10 -19 6 0 10 -9 10 -20 0 -11 5 -20 10 -20 6 0 10 -7 10 -15 0 -8 4 -15 9 -15 5 0 12 -11 15 -25 4 -14 12 -25 19 -25 12 0 16 -56 5 -76 -4 -9 -3 -199 2 -199 3 0 10 -44 12 -77 1 -15 5 -25 10 -22 4 3 8 -6 8 -20 0 -14 4 -26 9 -26 6 0 8 -9 6 -20 -2 -11 0 -20 6 -20 5 0 9 -9 9 -20 0 -11 5 -20 11 -20 5 0 7 -4 4 -10 -3 -5 -2 -10 4 -10 5 0 15 -16 22 -35 7 -19 18 -35 23 -35 6 0 5 -5 -2 -12 -7 -7 -12 -25 -12 -40 0 -15 -4 -28 -8 -28 -8 0 -12 -14 -13 -52 0 -10 -4 -20 -9 -23 -4 -3 -6 -15 -2 -27 4 -16 2 -19 -9 -13 -11 7 -11 5 1 -10 9 -11 10 -16 3 -11 -9 5 -13 -2 -13 -24 0 -17 -4 -29 -9 -25 -6 3 -8 -5 -5 -19 2 -14 -1 -28 -6 -31 -8 -5 -7 -12 2 -23 10 -12 10 -14 1 -8 -13 7 -15 0 -16 -51 -1 -12 -5 -20 -9 -17 -7 4 -12 -32 -11 -74 1 -6 -3 -12 -7 -12 -4 0 -7 -10 -6 -23 1 -12 -3 -25 -8 -29 -5 -3 90 -6 212 -6 213 0 222 1 222 20 0 10 5 16 10 13 6 -3 10 -1 10 4 0 6 -6 11 -12 11 -8 0 -9 3 -3 8 6 4 10 16 9 27 0 11 4 26 9 33 6 8 5 12 -4 12 -9 0 -10 3 -4 8 12 9 16 23 20 82 1 25 4 47 5 50 4 7 7 22 9 38 0 7 6 10 11 7 6 -3 10 0 10 7 0 9 3 9 10 -2 5 -8 17 -15 27 -15 10 0 24 -4 31 -8 7 -5 12 -3 12 4 0 10 3 10 12 1 7 -7 27 -12 44 -12 18 0 36 -5 39 -10 3 -6 12 -10 18 -10 7 0 6 4 -3 11 -13 9 -13 10 0 5 8 -3 23 -9 33 -12 9 -4 17 -11 17 -16 0 -6 7 -5 15 2 8 7 15 9 15 4 0 -5 12 -18 27 -28 17 -13 24 -14 19 -5 -4 8 -1 6 7 -4 9 -10 18 -18 21 -18 26 3 36 -1 30 -11 -5 -8 -2 -9 9 -5 10 3 17 2 17 -4 0 -6 5 -7 10 -4 6 3 10 1 10 -4 0 -6 3 -10 8 -10 4 1 9 0 12 -1 20 -7 52 -11 98 -11 69 1 82 3 82 12 0 6 42 21 56 18 4 0 10 4 14 11 4 6 17 12 29 13 13 1 20 6 17 14 -4 9 3 13 20 13 14 0 22 4 19 10 -3 5 0 7 8 4 8 -3 21 2 30 10 8 8 17 12 21 9 3 -3 13 0 23 8 15 12 16 12 8 -1 -7 -12 -6 -13 6 -5 8 6 28 12 44 14 17 2 35 6 40 9 6 4 31 7 57 7 25 0 44 3 41 7 -2 5 3 8 11 8 9 0 17 -7 17 -15 2 -17 5 -34 9 -37 2 -4 7 -42 11 -86 2 -18 7 -36 12 -39 4 -2 3 -11 -4 -19 -7 -9 -7 -14 -1 -14 5 0 9 -18 8 -39 0 -22 2 -37 7 -34 4 2 7 -5 7 -16 0 -19 7 -20 220 -19 213 0 219 1 209 19 -5 11 -7 24 -4 29 3 6 2 10 -3 10 -6 0 -10 6 -9 12 1 41 -4 79 -11 75 -6 -5 -10 20 -13 75 0 10 -5 20 -10 23 -5 4 -7 11 -4 16 4 5 2 9 -4 9 -6 0 -8 6 -5 14 3 8 -2 29 -11 46 -9 18 -12 29 -6 26 6 -4 11 -2 11 3 0 6 -5 11 -11 11 -5 0 -8 4 -4 9 3 5 1 12 -4 16 -6 3 -7 13 -4 22 4 11 3 14 -5 9 -8 -5 -10 -2 -6 8 3 9 3 24 -2 34 -10 24 -11 29 -13 58 -1 15 -5 23 -12 18 -7 -4 -6 3 2 17 7 13 13 27 14 31 0 4 6 13 13 20 6 6 12 18 12 25 0 7 5 13 10 13 6 0 9 3 9 8 -3 19 2 33 10 27 6 -3 8 3 6 15 -2 11 1 22 6 25 5 4 7 10 4 15 -3 5 -1 11 5 15 6 4 8 11 5 16 -4 5 -1 9 6 9 8 0 9 4 0 13 -8 10 -7 17 1 25 14 14 18 36 20 114 1 31 6 54 11 51 5 -3 5 3 -1 13 -5 11 -7 24 -5 31 2 6 -1 14 -7 18 -8 5 -7 11 1 22 10 11 10 16 0 23 -8 5 -9 10 -3 14 6 3 8 15 5 26 -3 11 0 20 6 20 6 0 11 7 11 15 0 8 5 15 11 15 5 0 8 4 5 9 -4 5 -1 11 4 13 6 2 12 13 13 25 0 12 5 19 9 17 4 -3 10 7 14 21 3 14 10 25 15 25 5 0 9 10 9 23 0 12 7 31 15 41 8 10 12 23 9 27 -3 5 -1 9 4 9 5 0 9 6 10 13 5 42 16 84 24 95 7 8 7 12 -1 12 -9 0 -9 5 -1 20 8 15 8 20 -2 20 -8 0 -9 3 -3 8 15 10 16 52 2 52 -8 0 -8 3 -2 8 11 8 16 42 6 42 -6 0 -11 25 -14 67 0 7 -4 10 -9 7 -4 -3 -8 4 -8 15 0 11 -7 26 -15 34 -8 8 -12 17 -9 19 2 3 -9 19 -26 36 -16 18 -30 36 -30 42 0 13 -36 31 -45 22 -5 -4 -5 -1 -1 6 4 7 0 14 -11 18 -10 3 -26 10 -35 15 -10 5 -25 9 -33 9 -8 0 -15 5 -15 12 0 6 -3 9 -6 6 -3 -4 -19 -2 -35 2 -20 6 -29 5 -29 -3 0 -9 -2 -9 -8 -1 -4 6 -35 12 -70 13 -42 1 -69 6 -78 16 -9 8 -20 15 -25 15 -5 0 -8 3 -7 8 4 11 -57 72 -72 72 -7 0 -11 3 -7 6 6 6 -16 34 -28 34 -3 0 -20 13 -38 30 -18 16 -38 30 -44 30 -7 0 -13 4 -13 8 0 5 -17 17 -37 28 -21 10 -41 23 -44 27 -5 7 -26 14 -52 16 -5 1 -5 6 -1 13 5 8 2 9 -9 5 -9 -3 -23 0 -31 8 -7 8 -16 11 -20 8 -3 -4 -6 -1 -6 4 0 6 -8 10 -17 8 -10 -1 -30 4 -45 11 -15 8 -31 14 -35 13 -4 -1 -10 0 -13 1 -13 5 -48 10 -77 12 -20 1 -30 5 -26 12 4 6 -1 5 -10 -3 -14 -11 -17 -11 -17 0 0 10 -3 10 -12 1 -7 -7 -17 -8 -29 -2 -12 7 -20 6 -24 0 -5 -8 -11 -8 -19 -1 -8 7 -16 7 -22 1z" transform="translate(0.000000,260.000000) scale(0.100000,-0.100000)"/></g></svg>